<svg id="svg" version="1.1" xmlns="http://www.w3.org/2000/svg" xmlns:xlink="http://www.w3.org/1999/xlink" width="400" height="249.33333333333334" viewBox="0, 0, 400,249.33333333333334"><g id="svgg"><path id="path0" d="M74.065 169.654 C 74.065 169.697,74.401 169.981,74.813 170.285 C 75.596 170.864,75.844 170.643,75.169 169.968 C 74.835 169.634,74.065 169.415,74.065 169.654 M0.000 202.120 L 0.000 231.421 200.000 231.421 L 400.000 231.421 400.000 202.120 L 400.000 172.818 200.000 172.818 L 0.000 172.818 0.000 202.120 M266.354 187.666 C 268.946 188.979,269.763 191.623,268.187 193.599 C 265.967 196.380,262.128 193.604,264.161 190.688 C 264.924 189.593,264.087 188.800,262.627 189.237 C 260.985 189.729,260.282 191.230,260.156 194.512 C 260.030 197.805,260.171 198.049,262.294 198.202 C 263.463 198.287,263.931 198.443,264.348 198.887 L 264.888 199.462 264.127 199.856 C 263.704 200.075,262.756 200.249,261.991 200.249 C 260.081 200.249,260.100 200.182,260.100 207.188 C 260.100 214.244,260.090 214.215,262.416 214.407 C 264.202 214.556,264.938 215.188,264.050 215.810 C 263.247 216.373,252.980 216.407,252.230 215.850 C 251.537 215.336,252.033 214.646,253.272 214.401 C 254.862 214.087,254.897 213.924,254.871 207.040 C 254.847 200.399,254.816 200.249,253.499 200.249 C 252.350 200.249,251.746 199.541,252.264 198.801 C 252.502 198.461,252.909 198.254,253.342 198.254 C 254.353 198.254,254.919 197.482,255.032 195.950 C 255.520 189.297,261.270 185.090,266.354 187.666 M53.610 194.085 C 53.617 201.048,53.444 200.828,56.945 198.314 C 59.010 196.832,62.640 196.873,64.329 198.399 C 66.190 200.081,66.436 201.092,66.581 207.631 C 66.719 213.857,66.762 214.050,68.099 214.343 C 69.089 214.561,69.560 215.422,68.937 215.878 C 68.288 216.352,59.642 216.352,58.994 215.878 C 58.354 215.410,58.837 214.590,59.975 214.214 C 61.278 213.784,61.348 213.470,61.335 208.059 C 61.323 202.624,61.239 202.225,59.865 201.086 C 56.545 198.333,53.616 201.986,53.616 208.880 L 53.616 213.013 54.302 213.593 C 56.648 215.578,56.532 215.425,56.000 215.836 C 55.302 216.374,46.095 216.388,45.649 215.851 C 45.205 215.316,45.746 214.464,46.529 214.464 C 46.887 214.464,47.419 214.180,47.768 213.804 L 48.379 213.144 48.379 202.196 C 48.379 189.908,48.383 189.939,46.745 189.632 C 44.321 189.177,44.952 187.800,47.607 187.750 C 48.512 187.733,50.037 187.646,50.998 187.558 C 53.665 187.313,53.604 187.161,53.610 194.085 M342.126 187.882 C 342.338 188.138,342.431 191.605,342.468 200.621 L 342.519 213.009 343.321 213.674 C 343.762 214.040,344.422 214.569,344.787 214.850 C 346.024 215.803,345.131 216.210,341.815 216.206 C 338.534 216.202,337.976 216.087,337.763 215.372 C 337.675 215.078,337.442 214.581,337.244 214.268 L 336.884 213.698 335.604 214.818 C 332.584 217.460,327.524 216.943,324.789 213.713 C 321.665 210.023,322.086 202.656,325.602 199.483 C 328.147 197.186,332.635 196.450,334.611 198.005 C 335.047 198.348,335.736 198.885,336.142 199.198 L 336.882 199.767 337.161 199.245 C 337.344 198.902,337.413 197.348,337.361 194.726 L 337.282 190.729 336.582 190.127 C 336.107 189.719,335.577 189.526,334.929 189.526 C 332.388 189.526,333.130 187.840,335.726 187.716 C 340.421 187.493,341.833 187.529,342.126 187.882 M41.489 188.125 L 42.314 188.470 42.478 191.679 C 42.709 196.205,42.683 198.200,42.392 198.380 C 41.556 198.897,40.748 197.713,40.061 194.965 C 39.093 191.094,34.782 188.092,33.414 190.337 C 32.941 191.112,32.920 191.621,32.919 202.002 C 32.918 214.832,32.836 214.452,35.590 214.460 C 37.120 214.465,37.896 215.235,37.016 215.878 C 36.445 216.296,23.694 216.362,22.926 215.951 C 21.900 215.402,22.572 214.680,24.330 214.442 C 26.869 214.097,26.700 214.982,26.707 202.053 C 26.714 189.950,26.713 189.944,25.394 189.680 C 22.888 189.179,20.060 192.430,18.846 197.207 C 18.617 198.107,18.421 198.398,18.003 198.459 C 17.134 198.585,16.998 197.742,17.222 193.641 C 17.334 191.583,17.433 189.600,17.441 189.232 C 17.475 187.745,17.181 187.781,29.452 187.781 C 38.429 187.781,40.829 187.849,41.489 188.125 M130.472 188.217 C 130.816 188.616,131.451 193.992,131.524 197.109 C 131.574 199.303,129.649 198.865,129.311 196.606 C 128.618 191.989,124.253 188.106,122.135 190.223 L 121.571 190.787 121.501 201.690 C 121.451 209.335,121.513 212.749,121.707 213.112 C 122.089 213.827,123.242 214.464,124.154 214.464 C 125.949 214.464,126.785 215.452,125.399 215.936 C 124.408 216.281,112.510 216.308,111.612 215.966 C 110.227 215.439,111.147 214.464,113.029 214.464 C 113.897 214.464,114.257 214.322,114.784 213.772 L 115.447 213.080 115.469 202.193 C 115.493 190.541,115.444 190.041,114.238 189.658 C 112.132 188.990,107.980 193.136,107.980 195.907 C 107.980 197.324,107.079 198.504,105.995 198.504 C 105.152 198.504,105.740 189.250,106.640 188.350 L 107.209 187.781 118.653 187.781 C 129.243 187.781,130.125 187.813,130.472 188.217 M292.055 188.279 C 292.827 188.933,292.186 189.526,290.706 189.526 C 289.968 189.526,289.564 189.700,289.008 190.255 L 288.279 190.984 288.283 201.913 C 288.285 207.925,288.369 212.959,288.470 213.101 C 288.951 213.778,290.170 214.464,290.893 214.464 C 292.097 214.464,292.749 215.271,291.980 215.810 C 290.780 216.651,278.055 216.308,278.055 215.435 C 278.055 215.048,279.180 214.464,279.928 214.464 C 280.399 214.464,281.003 214.201,281.503 213.778 L 282.314 213.092 282.311 202.244 C 282.309 196.278,282.304 191.273,282.301 191.121 C 282.283 190.367,281.061 189.526,279.985 189.526 C 278.400 189.526,277.725 188.952,278.519 188.279 C 279.073 187.810,279.471 187.781,285.287 187.781 C 291.103 187.781,291.501 187.810,292.055 188.279 M356.246 188.965 C 357.402 190.224,357.448 191.614,356.374 192.838 C 354.941 194.470,352.785 194.384,351.414 192.641 C 349.152 189.765,353.761 186.259,356.246 188.965 M185.270 194.316 C 185.224 198.161,185.292 198.254,188.179 198.254 C 190.024 198.254,190.287 198.313,190.629 198.801 C 191.346 199.825,190.583 200.249,188.022 200.249 C 185.090 200.249,185.265 199.805,185.345 207.014 L 185.411 213.092 186.331 213.542 C 187.783 214.252,189.174 213.461,189.420 211.786 C 189.680 210.012,189.918 209.557,190.683 209.365 C 192.118 209.005,192.216 210.468,190.932 213.092 C 188.918 217.208,183.331 217.948,180.912 214.419 C 179.900 212.944,179.743 211.616,179.842 205.382 C 179.922 200.319,179.907 200.261,178.519 200.253 C 177.692 200.248,176.580 199.393,176.933 199.033 C 177.070 198.894,177.963 198.352,178.917 197.831 C 181.190 196.589,182.384 195.058,182.800 192.854 C 183.077 191.388,183.157 191.256,183.881 191.059 C 185.185 190.705,185.310 190.997,185.270 194.316 M86.410 198.130 C 88.850 199.533,90.355 201.760,90.753 204.554 C 91.140 207.275,91.284 207.210,84.732 207.290 L 79.196 207.357 78.820 208.027 C 78.332 208.897,78.728 210.971,79.639 212.314 C 81.802 215.501,85.386 215.362,88.614 211.966 C 90.031 210.476,90.661 210.409,90.623 211.753 C 90.547 214.478,86.168 216.661,81.337 216.381 C 71.934 215.838,69.152 203.283,77.349 198.381 C 79.692 196.980,84.194 196.855,86.410 198.130 M148.996 198.167 C 149.926 198.652,150.744 199.319,151.229 199.989 L 151.995 201.045 152.120 207.218 C 152.257 214.013,152.265 214.046,153.812 214.335 C 155.794 214.706,155.865 215.486,153.981 216.192 C 151.595 217.084,148.967 216.563,148.055 215.016 C 147.467 214.020,146.258 214.045,145.137 215.076 C 144.214 215.925,143.711 216.125,141.610 216.477 C 133.598 217.819,131.541 209.076,139.341 206.833 C 140.128 206.607,141.081 206.264,141.458 206.073 C 141.835 205.881,143.051 205.595,144.161 205.438 C 146.703 205.079,146.989 204.747,146.835 202.331 C 146.714 200.432,145.631 199.164,143.892 198.886 C 141.961 198.577,140.263 199.829,140.854 201.127 C 141.931 203.490,139.627 205.518,137.125 204.409 C 136.067 203.941,135.910 203.627,135.910 201.975 C 135.910 198.102,144.230 195.680,148.996 198.167 M169.321 197.961 L 170.089 198.529 170.739 198.018 C 171.522 197.402,172.947 197.333,173.165 197.901 C 173.415 198.550,173.336 202.490,173.064 202.999 C 172.802 203.489,171.072 202.820,171.072 202.228 C 171.072 200.065,165.448 198.137,163.319 199.571 C 160.789 201.277,162.208 203.392,166.369 204.118 C 172.055 205.109,174.833 207.520,174.501 211.177 C 174.082 215.804,167.479 218.325,162.608 215.718 C 162.221 215.511,161.901 215.564,161.171 215.955 C 159.207 217.008,158.892 216.620,158.800 213.029 C 158.701 209.188,159.541 208.818,161.416 211.879 C 163.667 215.553,171.025 215.896,171.064 212.329 C 171.080 210.900,169.594 210.065,165.960 209.459 C 158.192 208.164,156.270 200.847,162.837 197.566 C 163.962 197.004,168.391 197.274,169.321 197.961 M208.613 198.306 C 210.622 199.530,211.637 200.853,212.364 203.195 C 213.614 207.216,213.591 207.232,206.731 207.232 C 199.942 207.232,199.574 207.558,201.484 211.876 C 203.018 215.343,207.592 215.441,210.412 212.068 C 211.153 211.181,211.484 210.973,212.148 210.973 C 214.766 210.973,210.284 215.638,207.088 216.238 C 199.270 217.707,193.698 212.745,194.760 205.259 C 195.666 198.871,203.273 195.053,208.613 198.306 M243.142 198.319 C 247.548 200.466,249.334 204.655,248.110 209.969 C 246.822 215.557,238.236 218.540,232.730 215.313 C 225.408 211.022,226.799 200.015,234.977 197.522 C 236.934 196.926,241.123 197.335,243.142 198.319 M377.979 198.251 C 379.390 199.029,379.589 199.245,380.285 200.756 L 381.047 202.409 381.047 207.701 C 381.047 213.923,381.219 214.628,382.668 214.356 C 383.751 214.152,384.540 215.020,383.907 215.720 C 382.722 217.030,378.139 216.762,377.200 215.328 C 376.315 213.979,375.558 213.894,374.130 214.982 C 371.420 217.049,366.651 217.195,364.709 215.271 C 361.872 212.461,363.759 207.987,368.278 206.807 C 369.053 206.605,369.993 206.281,370.366 206.088 C 370.740 205.895,371.909 205.608,372.965 205.451 C 376.176 204.974,377.015 202.543,374.799 200.139 C 372.671 197.830,368.430 198.895,369.641 201.434 C 370.841 203.948,367.219 205.928,365.316 203.799 C 361.615 199.657,372.153 195.040,377.979 198.251 M314.125 198.332 C 315.034 198.951,315.539 199.556,316.147 200.756 L 316.958 202.355 316.958 207.424 C 316.958 213.100,317.105 213.740,318.553 214.344 C 321.419 215.542,320.121 216.085,314.391 216.085 C 309.207 216.085,308.219 215.806,309.681 214.755 C 309.999 214.526,310.653 214.012,311.134 213.611 L 312.007 212.883 311.926 208.125 C 311.826 202.222,311.006 200.528,308.333 200.702 C 305.371 200.895,304.195 202.968,304.040 208.271 C 303.898 213.115,303.926 213.231,305.486 214.190 C 306.752 214.969,306.973 215.371,306.434 215.910 C 305.932 216.412,296.666 216.325,296.242 215.815 C 295.796 215.278,296.191 214.698,297.243 214.344 C 299.004 213.751,299.044 213.581,298.956 206.913 C 298.870 200.367,298.773 200.000,297.135 200.000 C 296.296 200.000,295.972 199.487,296.341 198.743 C 297.010 197.396,303.741 197.513,303.741 198.872 C 303.741 200.475,304.567 200.781,305.878 199.663 C 308.684 197.270,311.823 196.763,314.125 198.332 M356.874 198.272 C 356.998 198.468,357.101 201.804,357.103 205.686 C 357.108 213.585,357.174 213.951,358.702 214.455 C 359.623 214.759,360.032 215.380,359.597 215.815 C 359.168 216.245,350.118 216.328,349.550 215.907 C 348.914 215.435,349.207 214.927,350.516 214.233 C 352.153 213.364,352.154 213.360,352.070 207.000 C 351.987 200.721,351.924 200.465,350.365 200.123 C 349.287 199.886,348.984 199.383,349.471 198.640 C 350.046 197.762,356.353 197.448,356.874 198.272 M203.984 198.990 C 201.572 199.516,199.325 204.551,201.185 205.262 C 202.050 205.593,207.115 205.455,207.479 205.091 C 209.293 203.272,206.523 198.437,203.984 198.990 M80.629 199.633 C 79.042 200.883,77.966 204.104,78.800 205.108 C 79.332 205.750,84.813 205.649,85.412 204.987 C 87.763 202.389,83.370 197.472,80.629 199.633 M237.032 199.246 C 232.697 201.087,232.803 213.775,237.161 214.684 C 240.802 215.444,242.519 212.976,242.519 206.983 C 242.519 200.938,240.327 197.847,237.032 199.246 M331.629 199.994 C 327.831 201.141,327.819 212.234,331.614 213.488 C 336.706 215.171,339.652 205.521,335.447 200.934 C 334.528 199.932,333.044 199.567,331.629 199.994 M144.763 206.978 C 140.698 208.032,138.619 211.525,140.984 213.329 C 143.413 215.182,146.571 213.077,146.820 209.440 C 146.997 206.853,146.685 206.480,144.763 206.978 M371.628 207.750 C 367.999 209.457,368.123 214.051,371.795 213.947 C 374.166 213.879,375.674 211.999,375.681 209.102 L 375.686 207.107 374.439 207.060 C 373.509 207.025,372.795 207.200,371.628 207.750 " stroke="none" fill="#22b24c" fill-rule="evenodd"></path><path id="path1" d="M117.352 81.367 C 113.853 81.714,112.438 82.734,110.703 86.160 C 110.425 86.708,109.810 87.830,109.337 88.653 C 108.864 89.476,108.254 90.599,107.983 91.147 C 107.711 91.696,106.928 93.178,106.242 94.440 C 104.621 97.425,104.725 98.426,106.711 98.996 C 107.404 99.195,107.523 99.148,107.836 98.549 C 109.178 95.989,113.966 93.899,116.135 94.928 C 117.097 95.385,117.167 95.871,116.459 97.192 C 116.185 97.704,115.960 98.277,115.960 98.466 C 115.960 98.655,115.742 99.218,115.475 99.717 C 114.935 100.725,113.854 103.330,113.340 104.863 C 113.156 105.411,112.772 106.305,112.488 106.848 C 112.203 107.392,111.970 107.988,111.970 108.173 C 111.970 108.358,111.705 109.092,111.382 109.803 C 111.058 110.515,110.603 111.624,110.369 112.267 C 109.427 114.865,109.100 115.107,105.486 115.871 C 101.630 116.686,98.847 119.050,97.032 123.053 C 96.179 124.935,96.181 124.926,96.473 125.387 C 96.709 125.759,97.745 125.416,98.628 124.672 C 99.158 124.227,101.758 123.324,103.283 123.056 C 105.335 122.695,105.740 123.575,104.636 125.992 C 104.306 126.715,103.673 128.148,103.231 129.177 C 102.090 131.832,102.229 131.748,98.642 131.938 C 89.682 132.414,84.712 139.870,86.640 149.945 C 86.836 150.967,87.228 152.238,87.513 152.768 C 87.797 153.299,88.030 153.820,88.030 153.927 C 88.030 154.418,90.156 157.162,90.791 157.490 C 92.024 158.128,92.394 156.915,91.479 155.233 C 86.646 146.348,94.062 138.144,103.242 142.222 C 103.996 142.557,104.782 142.903,104.988 142.991 C 105.339 143.140,106.062 143.604,108.383 145.165 C 108.916 145.524,109.821 146.273,110.394 146.831 C 112.972 149.340,112.543 149.571,120.052 141.629 C 123.794 137.672,123.782 136.459,120.013 137.775 L 118.235 138.397 116.661 137.651 C 115.795 137.240,114.638 136.565,114.090 136.149 C 113.541 135.734,112.643 135.099,112.095 134.739 C 110.311 133.566,110.089 132.308,111.214 129.762 C 111.465 129.193,111.850 128.111,112.069 127.358 C 112.631 125.424,113.731 124.274,114.522 124.792 C 116.610 126.160,123.886 127.000,131.004 126.696 C 134.914 126.528,134.928 126.539,136.156 130.923 C 136.406 131.814,136.790 133.077,137.008 133.728 C 138.047 136.818,138.230 137.389,138.666 138.903 C 139.265 140.980,140.061 143.428,140.652 145.012 C 140.908 145.698,141.239 146.731,141.388 147.308 C 141.671 148.402,142.726 149.875,143.228 149.875 C 143.388 149.875,147.141 146.250,151.569 141.819 C 160.388 132.993,160.522 132.811,158.928 131.864 L 158.130 131.390 156.848 132.403 C 155.421 133.531,155.214 133.585,154.421 133.029 C 153.880 132.650,152.482 129.915,151.860 128.016 C 151.687 127.489,151.407 126.833,151.237 126.559 C 151.067 126.284,150.789 125.611,150.620 125.062 C 150.450 124.514,150.172 123.897,150.003 123.691 C 149.833 123.485,149.519 122.812,149.303 122.195 C 148.743 120.591,147.666 117.938,147.278 117.207 C 147.096 116.864,146.803 116.137,146.628 115.592 C 146.452 115.047,146.101 114.261,145.848 113.846 C 145.595 113.432,145.388 112.924,145.387 112.718 C 145.385 112.512,145.049 111.671,144.638 110.848 C 144.228 110.025,143.892 109.211,143.891 109.040 C 143.891 108.869,143.624 108.195,143.298 107.544 C 142.972 106.892,142.418 105.742,142.067 104.988 C 140.009 100.566,137.207 95.120,136.213 93.612 C 135.841 93.047,135.211 92.093,134.813 91.492 C 129.802 83.913,124.234 80.685,117.352 81.367 M296.010 87.398 C 295.667 87.588,293.142 90.072,290.399 92.917 C 287.656 95.763,285.103 98.371,284.726 98.713 C 282.727 100.525,284.814 102.410,287.081 100.839 C 289.057 99.469,291.375 99.706,292.068 101.349 C 292.476 102.315,292.371 140.447,291.958 141.272 C 291.820 141.546,291.385 142.073,290.991 142.442 C 290.046 143.328,290.060 143.379,291.584 144.616 C 293.412 146.100,296.596 148.989,298.241 150.656 C 300.316 152.761,300.299 152.762,303.341 150.201 C 305.934 148.018,307.270 146.960,309.947 144.970 C 313.809 142.098,313.775 142.132,313.611 141.310 C 313.431 140.412,313.032 140.089,312.344 140.287 C 310.588 140.793,309.865 140.709,309.102 139.906 L 308.354 139.120 308.229 117.253 C 308.156 104.426,308.008 95.180,307.871 94.888 C 305.773 90.422,298.660 85.930,296.010 87.398 M125.108 100.998 C 125.279 101.340,125.587 101.958,125.793 102.369 C 125.998 102.781,126.341 103.510,126.554 103.990 C 126.767 104.470,127.160 105.312,127.427 105.860 C 128.091 107.227,128.886 109.107,129.430 110.599 C 129.681 111.284,130.242 112.799,130.677 113.965 C 131.732 116.792,131.747 117.232,130.798 117.500 C 128.740 118.081,119.067 116.728,117.796 115.680 C 117.484 115.424,117.679 114.177,118.162 113.340 C 118.319 113.067,118.684 112.226,118.973 111.471 C 119.261 110.717,119.768 109.398,120.098 108.541 C 120.428 107.684,120.960 106.281,121.279 105.424 C 121.599 104.567,122.034 103.529,122.247 103.117 C 122.459 102.706,122.716 101.976,122.817 101.496 C 123.074 100.278,123.140 100.212,124.018 100.298 C 124.555 100.350,124.894 100.568,125.108 100.998 M190.898 109.020 C 189.938 109.446,188.851 110.032,188.484 110.321 C 188.116 110.611,187.410 111.128,186.916 111.471 C 186.422 111.814,185.131 112.804,184.047 113.671 C 181.584 115.642,180.991 115.676,180.035 113.904 C 178.700 111.428,176.337 109.753,173.317 109.141 C 170.605 108.591,170.030 108.764,167.241 110.973 C 166.461 111.590,165.045 112.712,164.094 113.466 C 163.143 114.221,161.855 115.230,161.232 115.710 C 158.943 117.472,159.724 118.820,162.886 118.565 C 166.243 118.294,166.560 118.971,166.565 126.434 C 166.573 136.755,166.206 138.859,164.205 139.988 C 162.658 140.861,162.715 140.961,166.940 144.763 C 168.160 145.860,169.392 146.991,169.678 147.275 C 173.675 151.242,174.157 151.379,176.449 149.195 C 177.280 148.403,179.174 146.633,180.656 145.262 C 185.413 140.861,185.287 140.999,185.287 140.184 C 185.287 139.231,184.951 139.024,184.025 139.408 C 183.088 139.796,181.982 139.385,181.578 138.500 C 181.386 138.079,181.297 135.134,181.297 129.251 L 181.297 120.621 181.949 119.765 C 183.772 117.376,187.372 117.505,188.375 119.997 C 189.176 121.987,189.361 125.515,189.040 132.652 C 188.718 139.810,188.634 140.205,187.187 141.432 L 186.409 142.091 187.656 143.307 C 188.769 144.394,189.901 145.380,192.334 147.382 C 192.750 147.724,193.278 148.173,193.507 148.379 C 197.050 151.571,197.126 151.573,200.366 148.504 C 200.655 148.229,202.000 147.051,203.353 145.885 C 209.395 140.682,210.070 139.396,206.814 139.286 C 204.346 139.203,204.181 138.494,204.287 128.429 L 204.364 121.072 205.050 120.018 C 206.267 118.146,208.050 117.573,210.017 118.422 C 212.616 119.544,212.706 119.964,212.558 130.299 C 212.419 140.033,212.305 140.900,211.075 141.626 C 209.798 142.379,209.920 143.111,211.534 144.375 C 213.416 145.851,214.444 146.670,215.317 147.391 C 215.739 147.740,216.330 148.188,216.629 148.389 C 216.929 148.589,217.975 149.418,218.954 150.230 C 221.182 152.078,220.591 152.389,227.176 145.916 C 232.121 141.055,232.236 140.919,232.075 140.115 C 231.830 138.886,231.535 138.725,230.685 139.353 C 229.752 140.043,228.540 140.075,228.188 139.418 C 228.023 139.109,227.925 135.151,227.915 128.383 L 227.900 117.830 227.104 115.909 C 225.257 111.444,222.172 109.406,217.327 109.447 C 215.134 109.465,214.156 109.672,211.596 110.660 C 209.811 111.349,207.311 113.110,205.608 114.876 C 204.336 116.196,203.560 116.132,202.506 114.620 C 201.062 112.549,197.921 109.878,195.727 108.857 C 193.983 108.045,193.019 108.078,190.898 109.020 M245.259 109.717 C 244.847 109.790,244.200 110.075,243.823 110.349 C 242.197 111.532,239.237 113.719,238.778 114.075 C 237.291 115.233,234.700 117.146,234.102 117.528 C 233.371 117.996,233.180 119.041,233.661 119.940 C 233.995 120.566,235.378 121.036,235.815 120.673 C 236.385 120.201,237.904 119.976,238.684 120.248 C 240.116 120.747,240.150 121.004,240.150 131.316 L 240.150 140.713 239.262 141.695 C 238.236 142.831,238.214 143.540,239.186 144.121 C 239.815 144.497,241.666 145.755,246.010 148.758 C 247.107 149.517,248.286 150.325,248.628 150.555 C 248.971 150.784,249.453 151.174,249.698 151.421 C 250.274 152.001,251.459 151.995,252.317 151.408 C 254.248 150.085,260.496 145.943,261.223 145.503 C 261.684 145.224,262.274 144.803,262.534 144.568 C 263.485 143.707,264.701 144.003,266.151 145.449 C 267.750 147.044,269.966 148.993,271.325 150.000 C 271.881 150.411,272.657 151.001,273.049 151.309 C 273.442 151.618,273.965 151.870,274.213 151.870 C 274.923 151.870,285.536 141.169,285.536 140.452 C 285.536 138.947,284.730 138.560,283.348 139.402 C 279.933 141.484,279.177 139.291,279.177 127.307 C 279.177 117.632,279.092 116.927,277.674 114.843 C 275.734 111.989,273.205 110.642,269.743 110.616 L 267.446 110.599 264.938 112.718 C 263.559 113.884,262.012 115.175,261.501 115.586 C 260.989 115.998,260.220 116.643,259.792 117.020 C 259.363 117.397,258.921 117.706,258.809 117.706 C 258.113 117.706,257.962 119.321,258.572 120.251 C 259.291 121.350,259.312 121.355,260.599 120.698 C 262.370 119.794,263.472 120.021,264.242 121.446 C 264.919 122.700,264.963 137.252,264.295 138.653 C 262.698 141.998,258.103 143.130,255.699 140.771 C 254.429 139.525,254.367 138.923,254.367 127.805 L 254.366 117.581 253.705 115.763 C 252.444 112.299,248.125 109.207,245.259 109.717 M260.164 187.694 C 257.176 188.916,255.330 191.886,255.032 195.950 C 254.919 197.482,254.353 198.254,253.342 198.254 C 252.909 198.254,252.502 198.461,252.264 198.801 C 251.746 199.541,252.350 200.249,253.499 200.249 C 254.816 200.249,254.847 200.399,254.871 207.040 C 254.897 213.924,254.862 214.087,253.272 214.401 C 252.033 214.646,251.537 215.336,252.230 215.850 C 252.980 216.407,263.247 216.373,264.050 215.810 C 264.938 215.188,264.202 214.556,262.416 214.407 C 260.090 214.215,260.100 214.244,260.100 207.188 C 260.100 200.182,260.081 200.249,261.991 200.249 C 262.756 200.249,263.704 200.075,264.127 199.856 L 264.888 199.462 264.348 198.887 C 263.931 198.443,263.463 198.287,262.294 198.202 C 260.171 198.049,260.030 197.805,260.156 194.512 C 260.282 191.230,260.985 189.729,262.627 189.237 C 264.087 188.800,264.924 189.593,264.161 190.688 C 262.128 193.604,265.967 196.380,268.187 193.599 C 271.320 189.672,265.607 185.467,260.164 187.694 M50.998 187.558 C 50.037 187.646,48.512 187.733,47.607 187.750 C 44.952 187.800,44.321 189.177,46.745 189.632 C 48.383 189.939,48.379 189.908,48.379 202.196 L 48.379 213.144 47.768 213.804 C 47.419 214.180,46.887 214.464,46.529 214.464 C 45.746 214.464,45.205 215.316,45.649 215.851 C 46.095 216.388,55.302 216.374,56.000 215.836 C 56.532 215.425,56.648 215.578,54.302 213.593 L 53.616 213.013 53.616 208.880 C 53.616 201.986,56.545 198.333,59.865 201.086 C 61.239 202.225,61.323 202.624,61.335 208.059 C 61.348 213.470,61.278 213.784,59.975 214.214 C 58.837 214.590,58.354 215.410,58.994 215.878 C 59.642 216.352,68.288 216.352,68.937 215.878 C 69.560 215.422,69.089 214.561,68.099 214.343 C 66.762 214.050,66.719 213.857,66.581 207.631 C 66.436 201.092,66.190 200.081,64.329 198.399 C 62.640 196.873,59.010 196.832,56.945 198.314 C 53.444 200.828,53.617 201.048,53.610 194.085 C 53.604 187.161,53.665 187.313,50.998 187.558 M335.726 187.716 C 333.130 187.840,332.388 189.526,334.929 189.526 C 335.577 189.526,336.107 189.719,336.582 190.127 L 337.282 190.729 337.361 194.726 C 337.413 197.348,337.344 198.902,337.161 199.245 L 336.882 199.767 336.142 199.198 C 335.736 198.885,335.047 198.348,334.611 198.005 C 333.425 197.071,329.058 197.069,327.556 198.001 C 321.472 201.777,320.859 211.202,326.435 215.241 C 328.919 217.041,333.293 216.839,335.604 214.818 L 336.884 213.698 337.244 214.268 C 337.442 214.581,337.675 215.078,337.763 215.372 C 337.976 216.087,338.534 216.202,341.815 216.206 C 345.131 216.210,346.024 215.803,344.787 214.850 C 344.422 214.569,343.762 214.040,343.321 213.674 L 342.519 213.009 342.468 200.621 C 342.431 191.605,342.338 188.138,342.126 187.882 C 341.833 187.529,340.421 187.493,335.726 187.716 M17.848 188.172 C 17.633 188.388,17.450 188.865,17.441 189.232 C 17.433 189.600,17.334 191.583,17.222 193.641 C 16.998 197.742,17.134 198.585,18.003 198.459 C 18.421 198.398,18.617 198.107,18.846 197.207 C 20.060 192.430,22.888 189.179,25.394 189.680 C 26.713 189.944,26.714 189.950,26.707 202.053 C 26.700 214.982,26.869 214.097,24.330 214.442 C 22.572 214.680,21.900 215.402,22.926 215.951 C 23.694 216.362,36.445 216.296,37.016 215.878 C 37.896 215.235,37.120 214.465,35.590 214.460 C 32.836 214.452,32.918 214.832,32.919 202.002 C 32.920 191.621,32.941 191.112,33.414 190.337 C 34.782 188.092,39.093 191.094,40.061 194.965 C 40.748 197.713,41.556 198.897,42.392 198.380 C 42.683 198.200,42.709 196.205,42.478 191.679 L 42.314 188.470 41.489 188.125 C 40.179 187.578,18.400 187.621,17.848 188.172 M106.640 188.350 C 105.740 189.250,105.152 198.504,105.995 198.504 C 107.079 198.504,107.980 197.324,107.980 195.907 C 107.980 193.136,112.132 188.990,114.238 189.658 C 115.444 190.041,115.493 190.541,115.469 202.193 L 115.447 213.080 114.784 213.772 C 114.257 214.322,113.897 214.464,113.029 214.464 C 111.147 214.464,110.227 215.439,111.612 215.966 C 112.510 216.308,124.408 216.281,125.399 215.936 C 126.785 215.452,125.949 214.464,124.154 214.464 C 123.242 214.464,122.089 213.827,121.707 213.112 C 121.513 212.749,121.451 209.335,121.501 201.690 L 121.571 190.787 122.135 190.223 C 124.253 188.106,128.618 191.989,129.311 196.606 C 129.553 198.222,129.913 198.633,130.820 198.328 C 131.676 198.040,131.673 198.102,131.174 192.394 C 130.722 187.213,132.263 187.781,118.653 187.781 L 107.209 187.781 106.640 188.350 M278.519 188.279 C 277.725 188.952,278.400 189.526,279.985 189.526 C 281.061 189.526,282.283 190.367,282.301 191.121 C 282.304 191.273,282.309 196.278,282.311 202.244 L 282.314 213.092 281.503 213.778 C 281.003 214.201,280.399 214.464,279.928 214.464 C 279.180 214.464,278.055 215.048,278.055 215.435 C 278.055 216.308,290.780 216.651,291.980 215.810 C 292.749 215.271,292.097 214.464,290.893 214.464 C 290.170 214.464,288.951 213.778,288.470 213.101 C 288.369 212.959,288.285 207.925,288.283 201.913 L 288.279 190.984 289.008 190.255 C 289.564 189.700,289.968 189.526,290.706 189.526 C 292.186 189.526,292.827 188.933,292.055 188.279 C 291.501 187.810,291.103 187.781,285.287 187.781 C 279.471 187.781,279.073 187.810,278.519 188.279 M351.796 188.976 C 350.174 190.637,350.677 192.757,352.933 193.767 C 354.186 194.328,355.339 194.017,356.374 192.838 C 358.957 189.896,354.538 186.168,351.796 188.976 M183.881 191.059 C 183.157 191.256,183.077 191.388,182.800 192.854 C 182.384 195.058,181.190 196.589,178.917 197.831 C 177.963 198.352,177.070 198.894,176.933 199.033 C 176.580 199.393,177.692 200.248,178.519 200.253 C 179.907 200.261,179.922 200.319,179.842 205.382 C 179.743 211.616,179.900 212.944,180.912 214.419 C 183.331 217.948,188.918 217.208,190.932 213.092 C 192.216 210.468,192.118 209.005,190.683 209.365 C 189.918 209.557,189.680 210.012,189.420 211.786 C 189.174 213.461,187.783 214.252,186.331 213.542 L 185.411 213.092 185.345 207.014 C 185.265 199.805,185.090 200.249,188.022 200.249 C 190.583 200.249,191.346 199.825,190.629 198.801 C 190.287 198.313,190.024 198.254,188.179 198.254 C 185.292 198.254,185.224 198.161,185.270 194.316 C 185.310 190.997,185.185 190.705,183.881 191.059 M79.052 197.575 C 69.199 201.074,70.986 215.783,81.337 216.381 C 86.168 216.661,90.547 214.478,90.623 211.753 C 90.661 210.409,90.031 210.476,88.614 211.966 C 85.386 215.362,81.802 215.501,79.639 212.314 C 78.728 210.971,78.332 208.897,78.820 208.027 L 79.196 207.357 84.732 207.290 C 91.284 207.210,91.140 207.275,90.753 204.554 C 89.990 199.191,84.209 195.743,79.052 197.575 M140.773 197.481 C 138.029 198.222,135.910 200.180,135.910 201.975 C 135.910 203.627,136.067 203.941,137.125 204.409 C 139.627 205.518,141.931 203.490,140.854 201.127 C 140.263 199.829,141.961 198.577,143.892 198.886 C 145.631 199.164,146.714 200.432,146.835 202.331 C 146.989 204.747,146.703 205.079,144.161 205.438 C 143.051 205.595,141.835 205.881,141.458 206.073 C 141.081 206.264,140.128 206.607,139.341 206.833 C 131.541 209.076,133.598 217.819,141.610 216.477 C 143.711 216.125,144.214 215.925,145.137 215.076 C 146.258 214.045,147.467 214.020,148.055 215.016 C 148.967 216.563,151.595 217.084,153.981 216.192 C 155.865 215.486,155.794 214.706,153.812 214.335 C 152.265 214.046,152.257 214.013,152.120 207.218 L 151.995 201.045 151.229 199.989 C 149.627 197.778,144.355 196.514,140.773 197.481 M162.837 197.566 C 156.270 200.847,158.192 208.164,165.960 209.459 C 169.594 210.065,171.080 210.900,171.064 212.329 C 171.025 215.896,163.667 215.553,161.416 211.879 C 159.541 208.818,158.701 209.188,158.800 213.029 C 158.892 216.620,159.207 217.008,161.171 215.955 C 161.901 215.564,162.221 215.511,162.608 215.718 C 167.479 218.325,174.082 215.804,174.501 211.177 C 174.833 207.520,172.055 205.109,166.369 204.118 C 162.208 203.392,160.789 201.277,163.319 199.571 C 165.448 198.137,171.072 200.065,171.072 202.228 C 171.072 202.820,172.802 203.489,173.064 202.999 C 173.336 202.490,173.415 198.550,173.165 197.901 C 172.947 197.333,171.522 197.402,170.739 198.018 L 170.089 198.529 169.321 197.961 C 168.391 197.274,163.962 197.004,162.837 197.566 M201.379 197.426 C 194.938 199.230,192.404 208.529,196.986 213.550 C 200.834 217.768,208.864 217.432,212.107 212.917 C 213.717 210.677,212.207 209.921,210.412 212.068 C 207.592 215.441,203.018 215.343,201.484 211.876 C 199.574 207.558,199.942 207.232,206.731 207.232 C 213.591 207.232,213.614 207.216,212.364 203.195 C 210.964 198.688,206.063 196.115,201.379 197.426 M234.977 197.522 C 226.799 200.015,225.408 211.022,232.730 215.313 C 238.236 218.540,246.822 215.557,248.110 209.969 C 249.764 202.791,245.761 197.515,238.529 197.342 C 237.020 197.306,235.422 197.387,234.977 197.522 M369.451 197.506 C 365.611 198.710,363.559 201.833,365.316 203.799 C 367.219 205.928,370.841 203.948,369.641 201.434 C 368.430 198.895,372.671 197.830,374.799 200.139 C 377.015 202.543,376.176 204.974,372.965 205.451 C 371.909 205.608,370.740 205.895,370.366 206.088 C 369.993 206.281,369.053 206.605,368.278 206.807 C 363.759 207.987,361.872 212.461,364.709 215.271 C 366.651 217.195,371.420 217.049,374.130 214.982 C 375.558 213.894,376.315 213.979,377.200 215.328 C 378.139 216.762,382.722 217.030,383.907 215.720 C 384.540 215.020,383.751 214.152,382.668 214.356 C 381.219 214.628,381.047 213.923,381.047 207.701 L 381.047 202.409 380.285 200.756 C 378.957 197.874,373.499 196.237,369.451 197.506 M308.103 198.167 C 307.418 198.530,306.417 199.203,305.878 199.663 C 304.567 200.781,303.741 200.475,303.741 198.872 C 303.741 197.513,297.010 197.396,296.341 198.743 C 295.972 199.487,296.296 200.000,297.135 200.000 C 298.773 200.000,298.870 200.367,298.956 206.913 C 299.044 213.581,299.004 213.751,297.243 214.344 C 296.191 214.698,295.796 215.278,296.242 215.815 C 296.666 216.325,305.932 216.412,306.434 215.910 C 306.973 215.371,306.752 214.969,305.486 214.190 C 303.926 213.231,303.898 213.115,304.040 208.271 C 304.195 202.968,305.371 200.895,308.333 200.702 C 311.006 200.528,311.826 202.222,311.926 208.125 L 312.007 212.883 311.134 213.611 C 310.653 214.012,309.999 214.526,309.681 214.755 C 308.219 215.806,309.207 216.085,314.391 216.085 C 320.121 216.085,321.419 215.542,318.553 214.344 C 317.105 213.740,316.958 213.100,316.958 207.424 L 316.958 202.355 316.147 200.756 C 314.543 197.592,311.209 196.519,308.103 198.167 M351.807 197.928 C 349.074 198.066,348.057 199.616,350.365 200.123 C 351.924 200.465,351.987 200.721,352.070 207.000 C 352.154 213.360,352.153 213.364,350.516 214.233 C 349.207 214.927,348.914 215.435,349.550 215.907 C 350.118 216.328,359.168 216.245,359.597 215.815 C 360.032 215.380,359.623 214.759,358.702 214.455 C 357.174 213.951,357.108 213.585,357.103 205.686 C 357.101 201.804,356.998 198.468,356.874 198.272 C 356.624 197.877,355.001 197.767,351.807 197.928 M206.641 200.144 C 208.025 201.528,208.461 204.106,207.479 205.091 C 206.579 205.992,200.499 205.442,200.499 204.459 C 200.499 200.066,204.061 197.564,206.641 200.144 M84.299 199.758 C 85.355 200.595,85.822 201.686,85.848 203.376 C 85.876 205.270,85.486 205.486,82.037 205.486 C 78.528 205.486,78.406 205.408,78.652 203.318 C 79.071 199.749,81.976 197.918,84.299 199.758 M240.131 199.673 C 243.300 201.747,243.648 210.967,240.666 213.824 C 238.288 216.102,235.137 214.622,234.294 210.832 C 232.611 203.269,235.931 196.923,240.131 199.673 M333.929 200.000 C 338.843 201.365,338.412 212.747,333.414 213.591 C 330.498 214.084,328.931 211.856,328.857 207.107 C 328.770 201.627,330.593 199.073,333.929 200.000 M146.499 207.069 C 147.275 207.636,146.917 211.192,145.971 212.319 C 143.806 214.899,140.150 214.285,140.150 211.343 C 140.150 209.297,141.785 207.750,144.763 206.978 C 145.862 206.693,145.994 206.700,146.499 207.069 M375.681 209.102 C 375.673 212.623,373.277 214.708,370.396 213.703 C 366.787 212.445,370.162 206.900,374.439 207.060 L 375.686 207.107 375.681 209.102 " stroke="none" fill="#ffffff" fill-rule="evenodd"></path><path id="path2" d="M74.066 84.788 C 74.067 152.239,74.131 169.577,74.378 169.580 C 74.946 169.587,75.391 170.022,75.435 170.613 L 75.478 171.197 200.094 171.260 L 324.710 171.322 325.323 170.710 L 325.935 170.097 325.935 85.049 L 325.935 0.000 199.999 0.000 L 74.063 0.000 74.066 84.788 M124.609 82.171 C 128.385 83.934,131.998 87.234,134.813 91.492 C 135.211 92.093,135.841 93.047,136.213 93.612 C 137.207 95.120,140.009 100.566,142.067 104.988 C 142.418 105.742,142.972 106.892,143.298 107.544 C 143.624 108.195,143.891 108.869,143.891 109.040 C 143.892 109.211,144.228 110.025,144.638 110.848 C 145.049 111.671,145.385 112.512,145.387 112.718 C 145.388 112.924,145.595 113.432,145.848 113.846 C 146.101 114.261,146.452 115.047,146.628 115.592 C 146.803 116.137,147.096 116.864,147.278 117.207 C 147.666 117.938,148.743 120.591,149.303 122.195 C 149.519 122.812,149.833 123.485,150.003 123.691 C 150.172 123.897,150.450 124.514,150.620 125.062 C 150.789 125.611,151.067 126.284,151.237 126.559 C 151.407 126.833,151.687 127.489,151.860 128.016 C 152.482 129.915,153.880 132.650,154.421 133.029 C 155.214 133.585,155.421 133.531,156.848 132.403 L 158.130 131.390 158.928 131.864 C 160.522 132.811,160.388 132.993,151.569 141.819 C 147.141 146.250,143.388 149.875,143.228 149.875 C 142.726 149.875,141.671 148.402,141.388 147.308 C 141.239 146.731,140.908 145.698,140.652 145.012 C 140.061 143.428,139.265 140.980,138.666 138.903 C 138.230 137.389,138.047 136.818,137.008 133.728 C 136.790 133.077,136.406 131.814,136.156 130.923 C 134.928 126.539,134.914 126.528,131.004 126.696 C 123.886 127.000,116.610 126.160,114.522 124.792 C 113.731 124.274,112.631 125.424,112.069 127.358 C 111.850 128.111,111.465 129.193,111.214 129.762 C 110.089 132.308,110.311 133.566,112.095 134.739 C 112.643 135.099,113.541 135.734,114.090 136.149 C 114.638 136.565,115.795 137.240,116.661 137.651 L 118.235 138.397 120.013 137.775 C 123.782 136.459,123.794 137.672,120.052 141.629 C 112.543 149.571,112.972 149.340,110.394 146.831 C 109.821 146.273,108.916 145.524,108.383 145.165 C 106.062 143.604,105.339 143.140,104.988 142.991 C 104.782 142.903,103.996 142.557,103.242 142.222 C 94.062 138.144,86.646 146.348,91.479 155.233 C 92.394 156.915,92.024 158.128,90.791 157.490 C 90.156 157.162,88.030 154.418,88.030 153.927 C 88.030 153.820,87.797 153.299,87.513 152.768 C 87.228 152.238,86.836 150.967,86.640 149.945 C 84.712 139.870,89.682 132.414,98.642 131.938 C 102.229 131.748,102.090 131.832,103.231 129.177 C 103.673 128.148,104.306 126.715,104.636 125.992 C 105.740 123.575,105.335 122.695,103.283 123.056 C 101.758 123.324,99.158 124.227,98.628 124.672 C 95.072 127.665,96.303 122.258,99.983 118.721 C 101.392 117.368,103.451 116.301,105.486 115.871 C 109.100 115.107,109.427 114.865,110.369 112.267 C 110.603 111.624,111.058 110.515,111.382 109.803 C 111.705 109.092,111.970 108.358,111.970 108.173 C 111.970 107.988,112.203 107.392,112.488 106.848 C 112.772 106.305,113.156 105.411,113.340 104.863 C 113.854 103.330,114.935 100.725,115.475 99.717 C 115.742 99.218,115.960 98.655,115.960 98.466 C 115.960 98.277,116.185 97.704,116.459 97.192 C 117.167 95.871,117.097 95.385,116.135 94.928 C 113.966 93.899,109.178 95.989,107.836 98.549 C 107.523 99.148,107.404 99.195,106.711 98.996 C 104.725 98.426,104.621 97.425,106.242 94.440 C 106.928 93.178,107.711 91.696,107.983 91.147 C 108.254 90.599,108.864 89.476,109.337 88.653 C 109.810 87.830,110.425 86.708,110.703 86.160 C 111.984 83.630,112.369 83.170,113.876 82.365 C 116.546 80.938,121.766 80.844,124.609 82.171 M299.401 87.748 C 303.295 89.000,306.292 91.526,307.871 94.888 C 308.008 95.180,308.156 104.426,308.229 117.253 L 308.354 139.120 309.102 139.906 C 309.865 140.709,310.588 140.793,312.344 140.287 C 313.032 140.089,313.431 140.412,313.611 141.310 C 313.775 142.132,313.809 142.098,309.947 144.970 C 307.270 146.960,305.934 148.018,303.341 150.201 C 300.299 152.762,300.316 152.761,298.241 150.656 C 296.596 148.989,293.412 146.100,291.584 144.616 C 290.060 143.379,290.046 143.328,290.991 142.442 C 291.385 142.073,291.820 141.546,291.958 141.272 C 292.371 140.447,292.476 102.315,292.068 101.349 C 291.375 99.706,289.057 99.469,287.081 100.839 C 284.814 102.410,282.727 100.525,284.726 98.713 C 285.103 98.371,287.656 95.763,290.399 92.917 C 296.731 86.349,296.126 86.696,299.401 87.748 M123.120 100.422 C 123.055 100.533,122.918 101.016,122.817 101.496 C 122.716 101.976,122.459 102.706,122.247 103.117 C 122.034 103.529,121.599 104.567,121.279 105.424 C 120.960 106.281,120.428 107.684,120.098 108.541 C 119.768 109.398,119.261 110.717,118.973 111.471 C 118.684 112.226,118.319 113.067,118.162 113.340 C 117.679 114.177,117.484 115.424,117.796 115.680 C 119.067 116.728,128.740 118.081,130.798 117.500 C 131.747 117.232,131.732 116.792,130.677 113.965 C 130.242 112.799,129.681 111.284,129.430 110.599 C 128.886 109.107,128.091 107.227,127.427 105.860 C 127.160 105.312,126.767 104.470,126.554 103.990 C 126.341 103.510,125.998 102.781,125.793 102.369 C 125.587 101.958,125.279 101.340,125.108 100.998 C 124.799 100.377,123.388 99.969,123.120 100.422 M195.727 108.857 C 197.921 109.878,201.062 112.549,202.506 114.620 C 203.560 116.132,204.336 116.196,205.608 114.876 C 207.311 113.110,209.811 111.349,211.596 110.660 C 218.905 107.839,224.557 109.752,227.104 115.909 L 227.900 117.830 227.915 128.383 C 227.925 135.151,228.023 139.109,228.188 139.418 C 228.540 140.075,229.752 140.043,230.685 139.353 C 231.535 138.725,231.830 138.886,232.075 140.115 C 232.236 140.919,232.121 141.055,227.176 145.916 C 220.591 152.389,221.182 152.078,218.954 150.230 C 217.975 149.418,216.929 148.589,216.629 148.389 C 216.330 148.188,215.739 147.740,215.317 147.391 C 214.444 146.670,213.416 145.851,211.534 144.375 C 209.920 143.111,209.798 142.379,211.075 141.626 C 212.305 140.900,212.419 140.033,212.558 130.299 C 212.706 119.964,212.616 119.544,210.017 118.422 C 208.050 117.573,206.267 118.146,205.050 120.018 L 204.364 121.072 204.287 128.429 C 204.181 138.494,204.346 139.203,206.814 139.286 C 210.070 139.396,209.395 140.682,203.353 145.885 C 202.000 147.051,200.655 148.229,200.366 148.504 C 197.126 151.573,197.050 151.571,193.507 148.379 C 193.278 148.173,192.750 147.724,192.334 147.382 C 189.901 145.380,188.769 144.394,187.656 143.307 L 186.409 142.091 187.187 141.432 C 188.634 140.205,188.718 139.810,189.040 132.652 C 189.361 125.515,189.176 121.987,188.375 119.997 C 187.372 117.505,183.772 117.376,181.949 119.765 L 181.297 120.621 181.297 129.251 C 181.297 135.134,181.386 138.079,181.578 138.500 C 181.982 139.385,183.088 139.796,184.025 139.408 C 184.951 139.024,185.287 139.231,185.287 140.184 C 185.287 140.999,185.413 140.861,180.656 145.262 C 179.174 146.633,177.280 148.403,176.449 149.195 C 174.157 151.379,173.675 151.242,169.678 147.275 C 169.392 146.991,168.160 145.860,166.940 144.763 C 162.715 140.961,162.658 140.861,164.205 139.988 C 166.206 138.859,166.573 136.755,166.565 126.434 C 166.560 118.971,166.243 118.294,162.886 118.565 C 159.724 118.820,158.943 117.472,161.232 115.710 C 161.855 115.230,163.143 114.221,164.094 113.466 C 165.045 112.712,166.461 111.590,167.241 110.973 C 170.030 108.764,170.605 108.591,173.317 109.141 C 176.337 109.753,178.700 111.428,180.035 113.904 C 180.991 115.676,181.584 115.642,184.047 113.671 C 185.131 112.804,186.422 111.814,186.916 111.471 C 187.410 111.128,188.116 110.611,188.484 110.321 C 190.839 108.466,193.661 107.896,195.727 108.857 M248.924 110.581 C 251.095 111.596,252.900 113.553,253.705 115.763 L 254.366 117.581 254.367 127.805 C 254.367 138.923,254.429 139.525,255.699 140.771 C 258.103 143.130,262.698 141.998,264.295 138.653 C 264.963 137.252,264.919 122.700,264.242 121.446 C 263.472 120.021,262.370 119.794,260.599 120.698 C 259.312 121.355,259.291 121.350,258.572 120.251 C 257.962 119.321,258.113 117.706,258.809 117.706 C 258.921 117.706,259.363 117.397,259.792 117.020 C 260.220 116.643,260.989 115.998,261.501 115.586 C 262.012 115.175,263.559 113.884,264.938 112.718 L 267.446 110.599 269.743 110.616 C 273.205 110.642,275.734 111.989,277.674 114.843 C 279.092 116.927,279.177 117.632,279.177 127.307 C 279.177 139.291,279.933 141.484,283.348 139.402 C 284.730 138.560,285.536 138.947,285.536 140.452 C 285.536 141.169,274.923 151.870,274.213 151.870 C 273.965 151.870,273.442 151.618,273.049 151.309 C 272.657 151.001,271.881 150.411,271.325 150.000 C 269.966 148.993,267.750 147.044,266.151 145.449 C 264.701 144.003,263.485 143.707,262.534 144.568 C 262.274 144.803,261.684 145.224,261.223 145.503 C 260.496 145.943,254.248 150.085,252.317 151.408 C 251.459 151.995,250.274 152.001,249.698 151.421 C 249.453 151.174,248.971 150.784,248.628 150.555 C 248.286 150.325,247.107 149.517,246.010 148.758 C 241.666 145.755,239.815 144.497,239.186 144.121 C 238.214 143.540,238.236 142.831,239.262 141.695 L 240.150 140.713 240.150 131.316 C 240.150 121.004,240.116 120.747,238.684 120.248 C 237.904 119.976,236.385 120.201,235.815 120.673 C 235.378 121.036,233.995 120.566,233.661 119.940 C 233.180 119.041,233.371 117.996,234.102 117.528 C 234.700 117.146,237.291 115.233,238.778 114.075 C 239.237 113.719,242.197 111.532,243.823 110.349 C 245.165 109.373,246.467 109.432,248.924 110.581 M74.778 233.145 L 74.190 233.621 74.117 241.499 L 74.045 249.377 199.990 249.377 L 325.935 249.377 325.935 241.266 L 325.935 233.155 325.295 232.912 C 323.873 232.371,75.449 232.602,74.778 233.145 " stroke="none" fill="#ed1c24" fill-rule="evenodd"></path></g></svg>